<?xml version="1.0" standalone="no"?>
<!DOCTYPE svg PUBLIC "-//W3C//DTD SVG 20010904//EN"
 "http://www.w3.org/TR/2001/REC-SVG-20010904/DTD/svg10.dtd">
<svg version="1.0" xmlns="http://www.w3.org/2000/svg"
 width="512.000000pt" height="512.000000pt" viewBox="0 0 512.000000 512.000000"
 preserveAspectRatio="xMidYMid meet">
<metadata>
Created by potrace 1.14, written by Peter Selinger 2001-2017
</metadata>
<g transform="translate(0.000000,512.000000) scale(0.100000,-0.100000)"
fill="#000000" stroke="none">
<path d="M1694 5106 c-31 -14 -100 -90 -145 -161 -36 -56 -78 -165 -95 -244
-13 -65 -13 -235 1 -291 4 -14 9 -36 12 -50 11 -53 95 -212 143 -269 42 -51
94 -92 115 -91 3 0 38 0 78 0 l74 0 -16 -80 -16 -80 -658 0 c-729 0 -701 2
-753 -66 l-29 -37 -5 -1266 -5 -1266 -148 -380 c-81 -209 -151 -389 -156 -400
-44 -96 -90 -238 -87 -272 4 -51 29 -96 68 -125 l33 -23 2455 0 2455 0 33 23
c42 31 70 86 68 137 -1 24 -53 172 -125 360 -171 443 -184 477 -227 585 l-39
95 -5 1265 c-5 1225 -6 1266 -24 1293 -11 16 -35 39 -54 52 -32 22 -44 23
-192 24 -116 1 -168 -2 -192 -12 -103 -43 -129 -188 -47 -262 37 -32 77 -45
141 -45 l48 0 0 -1080 0 -1080 -1840 0 -1840 0 0 1080 0 1080 578 0 579 0 41
-82 c63 -127 145 -223 199 -233 10 -2 77 -4 150 -4 l132 -1 3 -307 c3 -282 5
-310 22 -336 34 -50 75 -72 136 -71 48 0 73 9 188 67 l133 68 131 -67 c149
-75 197 -85 259 -54 20 11 48 34 61 52 23 33 23 37 26 341 l3 307 283 0 c156
0 298 3 316 7 19 3 50 23 71 44 53 53 59 100 25 199 -40 120 -48 168 -51 290
-3 127 10 212 51 327 35 96 28 149 -25 202 -47 47 -67 51 -252 51 l-148 0 -12
58 c-17 78 -17 282 0 362 8 36 24 92 37 125 36 99 20 178 -48 227 l-33 23
-925 2 c-757 2 -931 0 -956 -11z m1599 -363 c-10 -75 -10 -280 0 -360 l8 -63
-734 0 -733 0 -21 38 c-68 121 -68 283 0 405 l21 37 734 0 733 0 -8 -57z m400
-800 c-10 -75 -10 -280 0 -360 l8 -63 -735 0 -735 0 -26 54 c-38 78 -52 170
-38 252 6 36 23 90 38 120 l26 54 735 0 735 0 -8 -57z m-653 -891 l0 -149 -50
25 c-68 33 -148 33 -218 0 l-52 -25 0 148 0 149 160 0 160 0 0 -148z m1431
-2067 c11 -27 35 -90 54 -140 18 -49 72 -188 118 -307 l84 -218 -803 0 c-636
0 -804 3 -805 13 -3 52 -46 113 -95 133 -48 20 -879 21 -927 0 -43 -17 -85
-68 -93 -111 l-6 -35 -799 0 c-520 0 -799 3 -799 10 0 9 41 121 61 165 5 11
28 72 52 135 24 63 65 169 90 235 25 66 51 132 56 148 l11 27 1891 -2 1891 -3
19 -50z"/>
<path d="M2506 1830 c-68 -21 -113 -96 -102 -170 19 -139 192 -186 280 -77 27
34 31 47 31 96 0 48 -5 64 -28 94 -15 20 -36 41 -47 47 -28 15 -101 21 -134
10z"/>
</g>
</svg>
